<svg width="24" height="24" viewBox="0 0 24 24" fill="none" xmlns="http://www.w3.org/2000/svg">
  <path d="M9 11H15L13 13.5H11L9 11Z" fill="#ff6b9d" stroke="#ff6b9d" stroke-width="1"/>
  <path d="M12 2C13.1 2 14 2.9 14 4C14 5.1 13.1 6 12 6C10.9 6 10 5.1 10 4C10 2.9 10.9 2 12 2Z" fill="#ff6b9d" stroke="#ff6b9d" stroke-width="1"/>
  <path d="M21 9V7L15 1L9 7V9C9 10.1 9.9 11 11 11V20C11 21.1 11.9 22 13 22C14.1 22 15 21.1 15 20V11C16.1 11 17 10.1 17 9Z" fill="#ff6b9d" stroke="#ff6b9d" stroke-width="1"/>
</svg>